<svg width="40" height="40" viewBox="0 0 40 40" fill="none" xmlns="http://www.w3.org/2000/svg">
  <rect width="40" height="40" rx="12" fill="#111111"/>
  <path d="M20 9C13.925 9 9 13.477 9 19C9 22.114 10.567 24.894 13.026 26.728L12.2 31.2L17.358 28.637C18.204 28.873 19.09 29 20 29C26.075 29 31 24.523 31 19C31 13.477 26.075 9 20 9Z" fill="white"/>
  <path d="M15.3 19.4C15.3 16.699 17.315 14.6 20 14.6C22.685 14.6 24.7 16.699 24.7 19.4C24.7 22.101 22.685 24.2 20 24.2C17.315 24.2 15.3 22.101 15.3 19.4ZM18.05 19.4C18.05 20.69 18.83 21.7 20 21.7C21.17 21.7 21.95 20.69 21.95 19.4C21.95 18.11 21.17 17.1 20 17.1C18.83 17.1 18.05 18.11 18.05 19.4Z" fill="#111111"/>
</svg>
